<svg width="349" height="288" viewBox="0 0 349 288" fill="none" xmlns="http://www.w3.org/2000/svg">
<path fill-rule="evenodd" clip-rule="evenodd" d="M36.7559 0C16.8736 0 0.755859 16.1178 0.755859 36V252C0.755859 271.882 16.8736 288 36.7559 288H220.756V200C220.756 177.909 238.664 160 260.756 160H348.756V36C348.756 16.1178 332.638 0 312.756 0H36.7559Z" fill="url(#paint0_linear_374_225)"/>
<path fill-rule="evenodd" clip-rule="evenodd" d="M36.7559 0C16.8736 0 0.755859 16.1178 0.755859 36V252C0.755859 271.882 16.8736 288 36.7559 288H220.756V200C220.756 177.909 238.664 160 260.756 160H348.756V36C348.756 16.1178 332.638 0 312.756 0H36.7559Z" fill="url(#paint1_radial_374_225)"/>
<path fill-rule="evenodd" clip-rule="evenodd" d="M36.7559 0H312.756C332.638 0 348.756 16.1178 348.756 36V160H274.756V71C274.756 55.536 262.22 43 246.756 43H0.755859V36C0.755859 16.1178 16.8736 0 36.7559 0Z" fill="url(#paint2_linear_374_225)"/>
<path fill-rule="evenodd" clip-rule="evenodd" d="M230.756 173.541C224.532 180.593 220.756 189.854 220.756 200V288H158.756V271.251C158.756 262.693 161.805 254.415 167.355 247.901L230.756 173.5V173.541Z" fill="#BFD8FF"/>
<path d="M255.756 242.298H268.415C268.939 244.501 270.218 246.45 272.029 247.808C273.84 249.167 276.07 249.848 278.331 249.735C284.051 249.735 287.818 246.577 287.818 241.965C287.818 237.353 283.885 234.777 276.101 234.777H271.06V224.362H275.423C282.943 224.362 286.018 221.592 286.018 217.437C286.018 213.282 282.68 210.429 278.068 210.429C276.001 210.306 273.967 210.996 272.401 212.352C270.836 213.708 269.862 215.623 269.689 217.686H257.556C257.985 210.429 263.706 200 278.068 200C289.605 200 297.555 206.578 297.555 215.802C297.569 218.768 296.636 221.661 294.892 224.06C293.149 226.458 290.685 228.238 287.86 229.14V229.306C291.154 229.906 294.123 231.669 296.226 234.275C298.328 236.881 299.425 240.156 299.314 243.502C299.314 253.502 290.159 260.122 278.289 260.122C265.672 260.164 256.698 252.99 255.756 242.298Z" fill="#6D4AFF"/>
<path d="M321.424 200.941H330.648V259.222H318.765V214.528L307.311 222.299V210.512L321.424 200.941Z" fill="#6D4AFF"/>
<defs>
<linearGradient id="paint0_linear_374_225" x1="174.756" y1="-115.063" x2="198.461" y2="221.668" gradientUnits="userSpaceOnUse">
<stop offset="0.988738" stop-color="#6D4AFF"/>
</linearGradient>
<radialGradient id="paint1_radial_374_225" cx="0" cy="0" r="1" gradientUnits="userSpaceOnUse" gradientTransform="translate(237.756 -147) rotate(110.421) scale(497.251 662.619)">
<stop offset="0.556057" stop-color="#54B7FF" stop-opacity="0"/>
<stop offset="0.994421" stop-color="#54B7FF"/>
</radialGradient>
<linearGradient id="paint2_linear_374_225" x1="348.756" y1="156.5" x2="131.178" y2="-143.565" gradientUnits="userSpaceOnUse">
<stop stop-color="#C8E8FF"/>
<stop offset="0.307532" stop-color="#BDAEFF"/>
<stop offset="1" stop-color="#6D4AFF"/>
</linearGradient>
</defs>
</svg>
