<svg width="90" height="106" viewBox="0 0 90 106" fill="none" xmlns="http://www.w3.org/2000/svg">
<path d="M0 27.7551V81.6251L41.968 105.66L89.355 77.6351V23.7651" fill="#FF9271"/>
<path d="M41.969 51.7911V105.661L89.356 77.6351V23.7651L41.969 51.7911Z" fill="#DF5C34"/>
<path d="M0 27.754L48.694 0L89.356 23.767L41.969 51.792L0 27.754Z" fill="#F47B56"/>
<path d="M43.083 12.3641C48.0202 12.0308 52.9497 13.1165 57.29 15.4931C59.776 16.9551 61.134 18.4811 61.326 20.0721C61.518 21.6621 60.698 23.0471 58.764 24.2151C57.8467 24.7819 56.836 25.1814 55.779 25.3951C54.91 25.6001 54.019 25.6901 53.127 25.6641L52.153 25.5871C52.244 25.8041 52.304 26.0331 52.333 26.2671C52.3024 26.8207 52.1254 27.3563 51.82 27.8191C51.3129 28.6794 50.5887 29.3915 49.72 29.8841C47.6953 31.0871 45.3747 31.7002 43.02 31.6541C40.5835 31.7196 38.1762 31.1116 36.063 29.8971C34.064 28.7171 33.04 27.3311 32.963 25.7411C32.9705 24.899 33.2148 24.0759 33.6678 23.3659C34.1208 22.656 34.7644 22.0877 35.525 21.7261C36.2548 21.271 37.0496 20.9294 37.882 20.7131C38.5458 20.5214 39.2292 20.4054 39.919 20.3671H40.624L39.342 19.5971L42.942 17.3531L51.282 22.2651C51.9198 22.6085 52.6327 22.7882 53.357 22.7882C54.0813 22.7882 54.7943 22.6085 55.432 22.2651C57.201 21.1621 56.569 19.7131 53.537 17.9171C50.3147 16.1428 46.6516 15.3284 42.981 15.5701C39.0906 15.6178 35.2847 16.7121 31.963 18.7381C28.94 20.6281 27.441 22.8811 27.467 25.4981C27.467 28.0621 29.068 30.3461 32.181 32.1801C35.5787 34.0804 39.4375 34.9996 43.327 34.8351C47.1993 34.8983 51.0131 33.8858 54.344 31.9101C55.4971 31.2269 56.5313 30.3606 57.406 29.3451C57.9909 28.7238 58.4284 27.9787 58.686 27.1651L58.866 26.3571L63.619 26.6261C63.627 26.7711 63.627 26.9161 63.619 27.0621C63.5321 27.4547 63.4164 27.8404 63.273 28.2161C63.0666 28.819 62.7915 29.3961 62.453 29.9361C61.9649 30.6629 61.3981 31.3336 60.763 31.9361C59.9252 32.7445 59.0013 33.4588 58.008 34.0661C55.1479 35.783 51.9799 36.9244 48.682 37.4261C45.0882 38.0538 41.4187 38.1185 37.805 37.6181C34.5201 37.2309 31.3453 36.1931 28.466 34.5651C26.1411 33.3342 24.2795 31.3806 23.162 28.9991C22.7053 27.9601 22.4695 26.8376 22.4695 25.7026C22.4695 24.5677 22.7053 23.4451 23.162 22.4061C24.269 19.9811 26.1115 17.9661 28.428 16.6471C32.842 13.9342 37.9028 12.4548 43.083 12.3631V12.3641ZM47.746 25.6261C47.576 24.7351 46.976 23.9861 46.145 23.6251C45.1359 23.0304 43.9863 22.7159 42.815 22.7141C41.7261 22.6728 40.6487 22.949 39.714 23.5091C39.3374 23.6929 39.0187 23.9769 38.7927 24.3298C38.5668 24.6828 38.4423 25.0911 38.433 25.5101C38.55 26.4001 39.123 27.1641 39.945 27.5241C40.9772 28.1139 42.1506 28.4112 43.339 28.3841C44.4817 28.4126 45.6093 28.1191 46.593 27.5371C46.9578 27.3701 47.266 27.1004 47.48 26.761C47.694 26.4216 47.8045 26.0273 47.798 25.6261" fill="#3E2928"/>
</svg>
