<svg width="348" height="288" viewBox="0 0 348 288" fill="none" xmlns="http://www.w3.org/2000/svg">
<path d="M0 252V36C0 16.1178 16.1178 0 36 0H103.514C110.327 0 116.961 2.1739 122.452 6.2054L145.048 22.7946C150.539 26.8261 157.173 29 163.986 29H312C331.882 29 348 45.1177 348 65V252C348 271.882 331.882 288 312 288H36C16.1177 288 0 271.882 0 252Z" fill="url(#paint0_linear_374_203)"/>
<path d="M0 252V36C0 16.1178 16.1178 0 36 0H103.514C110.327 0 116.961 2.1739 122.452 6.2054L145.048 22.7946C150.539 26.8261 157.173 29 163.986 29H312C331.882 29 348 45.1177 348 65V252C348 271.882 331.882 288 312 288H36C16.1177 288 0 271.882 0 252Z" fill="url(#paint1_radial_374_203)"/>
<path fill-rule="evenodd" clip-rule="evenodd" d="M163.986 29H312C331.882 29 348 45.1172 348 65V252C348 271.883 331.882 288 312 288H274V100.162C274 84.6347 261.365 72.0728 245.839 72.1622L109.529 72.9473C103.659 72.9824 97.9258 71.1699 93.1413 67.7676L62.7861 46.1816C58.0466 42.8105 52.3752 41 46.5595 41H0V36C0 16.1172 16.1178 0 36 0H103.514C110.327 0 116.961 2.1738 122.452 6.2051L145.048 22.7949C150.539 26.8262 157.173 29 163.986 29Z" fill="url(#paint2_linear_374_203)"/>
<defs>
<linearGradient id="paint0_linear_374_203" x1="174.25" y1="-145.77" x2="201.22" y2="233.775" gradientUnits="userSpaceOnUse">
<stop offset="0.988738" stop-color="#6D4AFF"/>
</linearGradient>
<radialGradient id="paint1_radial_374_203" cx="0" cy="0" r="1" gradientUnits="userSpaceOnUse" gradientTransform="translate(285.589 -126.247) rotate(116.076) scale(501.829 780.735)">
<stop offset="0.556057" stop-color="#FF62C0" stop-opacity="0"/>
<stop offset="0.994421" stop-color="#FF62C0"/>
</radialGradient>
<linearGradient id="paint2_linear_374_203" x1="-117" y1="-48" x2="318" y2="430" gradientUnits="userSpaceOnUse">
<stop stop-color="#6D4AFF"/>
<stop offset="0.35934" stop-color="#AE8CFF"/>
<stop offset="1" stop-color="#F8CCFF"/>
</linearGradient>
</defs>
</svg>
